<?xml version="1.0" standalone="no"?>
<!DOCTYPE svg PUBLIC "-//W3C//DTD SVG 20010904//EN"
 "http://www.w3.org/TR/2001/REC-SVG-20010904/DTD/svg10.dtd">
<svg version="1.0" xmlns="http://www.w3.org/2000/svg"
 width="1280.000000pt" height="1156.000000pt" viewBox="0 0 1280.000000 1156.000000"
 preserveAspectRatio="xMidYMid meet">
<metadata>
Created by potrace 1.15, written by Peter Selinger 2001-2017
</metadata>
<g transform="translate(0.000000,1156.000000) scale(0.100000,-0.100000)"
fill="#000000" stroke="none">
<path d="M5730 11550 c-1101 -86 -1906 -666 -2407 -1735 -291 -621 -464 -1313
-598 -2395 -78 -637 -96 -740 -151 -877 -208 -520 -849 -809 -1869 -842 l-210
-6 147 -72 c779 -380 1355 -409 1827 -90 40 27 71 44 67 38 -13 -21 -207 -143
-297 -188 -278 -136 -597 -190 -976 -165 -102 7 -188 11 -190 8 -11 -11 65
-235 116 -341 180 -374 440 -540 904 -576 73 -6 177 -7 231 -3 l99 6 -7 -41
c-16 -104 -72 -201 -142 -248 -74 -51 -105 -56 -341 -61 -123 -2 -223 -7 -223
-11 0 -14 203 -222 278 -285 171 -142 388 -265 717 -405 77 -33 133 -62 125
-65 -8 -3 -314 -86 -680 -185 -617 -168 -673 -185 -776 -236 -455 -226 -773
-590 -1014 -1163 -61 -145 -94 -236 -210 -572 -48 -140 -101 -291 -119 -335
-17 -44 -31 -89 -31 -100 0 -23 290 -283 422 -377 46 -33 144 -90 218 -126
l135 -67 2572 -5 c1415 -3 3939 -3 5610 0 2893 5 3040 6 3088 23 141 51 267
128 490 297 77 58 168 125 203 149 44 29 62 48 62 63 0 47 -457 1001 -596
1245 -87 152 -234 375 -320 483 -93 118 -303 323 -401 393 -89 63 -255 153
-343 186 -30 11 -446 118 -925 236 -478 119 -878 218 -888 221 -15 5 0 25 80
107 828 855 1037 2339 627 4452 -125 646 -269 1109 -484 1561 -308 647 -737
1158 -1267 1507 -453 299 -899 462 -1539 562 -215 34 -777 53 -1014 35z"/>
</g>
</svg>
